<svg width="601" height="368" viewBox="0 0 601 368" fill="none" xmlns="http://www.w3.org/2000/svg">
<path d="M135 230.208V71.7414C135 70.7432 135.736 69.8978 136.725 69.7604L187.275 62.7396C188.264 62.6022 189 61.7568 189 60.7586V36.2799C189 35.2651 189.76 34.4112 190.768 34.2934L225.732 30.2066C226.74 30.0888 227.5 29.2349 227.5 28.2202V3C227.5 1.89543 228.395 1 229.5 1H373C374.104 1 375 1.89543 375 3V28.2285C375 29.2397 375.755 30.0918 376.758 30.2139L410.241 34.2861C411.245 34.4082 412 35.2603 412 36.2715V60.8007C412 61.7806 412.71 62.6162 413.677 62.7744L465.323 71.2256C466.29 71.3838 467 72.2194 467 73.1993V230.299C467 231.642 465.735 232.625 464.439 232.27C449.414 228.142 370.982 208.762 301.321 232.889C301.109 232.962 300.886 233 300.662 233H299.301C299.101 233 298.901 232.969 298.71 232.911C222.062 209.394 151.834 227.923 137.614 232.181C136.302 232.574 135 231.578 135 230.208Z" fill="white" stroke="white"/>
<path d="M193.699 151.5C192.605 151.5 191.719 150.605 191.719 149.5V114C191.719 112.895 192.605 112 193.699 112H212.019C213.113 112 214 112.895 214 114V149.5C214 150.605 213.113 151.5 212.019 151.5H193.699Z" fill="#1266C0"/>
<path d="M193.699 196C192.605 196 191.719 195.105 191.719 194V160C191.719 158.895 192.605 158 193.699 158H212.019C213.113 158 214 158.895 214 160V194C214 195.105 213.113 196 212.019 196H193.699Z" fill="#1266C0"/>
<path d="M193.699 151.5C192.605 151.5 191.719 150.605 191.719 149.5V114C191.719 112.895 192.605 112 193.699 112H212.019C213.113 112 214 112.895 214 114V149.5C214 150.605 213.113 151.5 212.019 151.5H193.699Z" stroke="white"/>
<path d="M193.699 196C192.605 196 191.719 195.105 191.719 194V160C191.719 158.895 192.605 158 193.699 158H212.019C213.113 158 214 158.895 214 160V194C214 195.105 213.113 196 212.019 196H193.699Z" stroke="white"/>
<path d="M164.981 151.5C163.887 151.5 163 150.605 163 149.5V114C163 112.895 163.887 112 164.981 112H183.301C184.395 112 185.282 112.895 185.282 114V149.5C185.282 150.605 184.395 151.5 183.301 151.5H164.981Z" fill="#1266C0"/>
<path d="M164.981 196C163.887 196 163 195.105 163 194V160C163 158.895 163.887 158 164.981 158H183.301C184.395 158 185.282 158.895 185.282 160V194C185.282 195.105 184.395 196 183.301 196H164.981Z" fill="#1266C0"/>
<path d="M164.981 151.5C163.887 151.5 163 150.605 163 149.5V114C163 112.895 163.887 112 164.981 112H183.301C184.395 112 185.282 112.895 185.282 114V149.5C185.282 150.605 184.395 151.5 183.301 151.5H164.981Z" stroke="white"/>
<path d="M164.981 196C163.887 196 163 195.105 163 194V160C163 158.895 163.887 158 164.981 158H183.301C184.395 158 185.282 158.895 185.282 160V194C185.282 195.105 184.395 196 183.301 196H164.981Z" stroke="white"/>
<path d="M418.699 151.5C417.605 151.5 416.719 150.605 416.719 149.5V114C416.719 112.895 417.605 112 418.699 112H437.019C438.113 112 439 112.895 439 114V149.5C439 150.605 438.113 151.5 437.019 151.5H418.699Z" fill="#1266C0"/>
<path d="M418.699 196C417.605 196 416.719 195.105 416.719 194V160C416.719 158.895 417.605 158 418.699 158H437.019C438.113 158 439 158.895 439 160V194C439 195.105 438.113 196 437.019 196H418.699Z" fill="#1266C0"/>
<path d="M418.699 151.5C417.605 151.5 416.719 150.605 416.719 149.5V114C416.719 112.895 417.605 112 418.699 112H437.019C438.113 112 439 112.895 439 114V149.5C439 150.605 438.113 151.5 437.019 151.5H418.699Z" stroke="white"/>
<path d="M418.699 196C417.605 196 416.719 195.105 416.719 194V160C416.719 158.895 417.605 158 418.699 158H437.019C438.113 158 439 158.895 439 160V194C439 195.105 438.113 196 437.019 196H418.699Z" stroke="white"/>
<path d="M389.981 151.5C388.887 151.5 388 150.605 388 149.5V114C388 112.895 388.887 112 389.981 112H408.301C409.395 112 410.282 112.895 410.282 114V149.5C410.282 150.605 409.395 151.5 408.301 151.5H389.981Z" fill="#1266C0"/>
<path d="M389.981 196C388.887 196 388 195.105 388 194V160C388 158.895 388.887 158 389.981 158H408.301C409.395 158 410.282 158.895 410.282 160V194C410.282 195.105 409.395 196 408.301 196H389.981Z" fill="#1266C0"/>
<path d="M389.981 151.5C388.887 151.5 388 150.605 388 149.5V114C388 112.895 388.887 112 389.981 112H408.301C409.395 112 410.282 112.895 410.282 114V149.5C410.282 150.605 409.395 151.5 408.301 151.5H389.981Z" stroke="white"/>
<path d="M389.981 196C388.887 196 388 195.105 388 194V160C388 158.895 388.887 158 389.981 158H408.301C409.395 158 410.282 158.895 410.282 160V194C410.282 195.105 409.395 196 408.301 196H389.981Z" stroke="white"/>
<path d="M291 86.5C289.895 86.5 289 85.6046 289 84.5V47C289 45.8954 289.895 45 291 45H311C312.105 45 313 45.8954 313 47V84.5C313 85.6046 312.105 86.5 311 86.5H291Z" fill="#1266C0"/>
<path d="M327 86.5C325.895 86.5 325 85.6046 325 84.5V47C325 45.8954 325.895 45 327 45H347C348.105 45 349 45.8954 349 47V84.5C349 85.6046 348.105 86.5 347 86.5H327Z" fill="#1266C0"/>
<path d="M313 95.5C313 94.3954 312.105 93.5 311 93.5H291C289.895 93.5 289 94.3954 289 95.5V138.5C289 139.605 289.895 140.5 291 140.5H311C312.105 140.5 313 139.605 313 138.5V95.5Z" fill="#1266C0"/>
<path d="M313 148.5C313 147.395 312.105 146.5 311 146.5H291C289.895 146.5 289 147.395 289 148.5V205C289 206.105 289.895 207 291 207H311C312.105 207 313 206.105 313 205V148.5Z" fill="#1266C0"/>
<path d="M349 95.5C349 94.3954 348.105 93.5 347 93.5H327C325.895 93.5 325 94.3954 325 95.5V138.5C325 139.605 325.895 140.5 327 140.5H347C348.105 140.5 349 139.605 349 138.5V95.5Z" fill="#1266C0"/>
<path d="M349 148.5C349 147.395 348.105 146.5 347 146.5H327C325.895 146.5 325 147.395 325 148.5V205C325 206.105 325.895 207 327 207H347C348.105 207 349 206.105 349 205V148.5Z" fill="#1266C0"/>
<path d="M255 86.5C253.895 86.5 253 85.6046 253 84.5V47C253 45.8954 253.895 45 255 45H275C276.105 45 277 45.8954 277 47V84.5C277 85.6046 276.105 86.5 275 86.5H255Z" fill="#1266C0"/>
<path d="M277 95.5C277 94.3954 276.105 93.5 275 93.5H255C253.895 93.5 253 94.3954 253 95.5V138.5C253 139.605 253.895 140.5 255 140.5H275C276.105 140.5 277 139.605 277 138.5V95.5Z" fill="#1266C0"/>
<path d="M277 148.5C277 147.395 276.105 146.5 275 146.5H255C253.895 146.5 253 147.395 253 148.5V205C253 206.105 253.895 207 255 207H275C276.105 207 277 206.105 277 205V148.5Z" fill="#1266C0"/>
<path d="M291 86.5C289.895 86.5 289 85.6046 289 84.5V47C289 45.8954 289.895 45 291 45H311C312.105 45 313 45.8954 313 47V84.5C313 85.6046 312.105 86.5 311 86.5H291Z" stroke="white"/>
<path d="M327 86.5C325.895 86.5 325 85.6046 325 84.5V47C325 45.8954 325.895 45 327 45H347C348.105 45 349 45.8954 349 47V84.5C349 85.6046 348.105 86.5 347 86.5H327Z" stroke="white"/>
<path d="M313 95.5C313 94.3954 312.105 93.5 311 93.5H291C289.895 93.5 289 94.3954 289 95.5V138.5C289 139.605 289.895 140.5 291 140.5H311C312.105 140.5 313 139.605 313 138.5V95.5Z" stroke="white"/>
<path d="M313 148.5C313 147.395 312.105 146.5 311 146.5H291C289.895 146.5 289 147.395 289 148.5V205C289 206.105 289.895 207 291 207H311C312.105 207 313 206.105 313 205V148.5Z" stroke="white"/>
<path d="M349 95.5C349 94.3954 348.105 93.5 347 93.5H327C325.895 93.5 325 94.3954 325 95.5V138.5C325 139.605 325.895 140.5 327 140.5H347C348.105 140.5 349 139.605 349 138.5V95.5Z" stroke="white"/>
<path d="M349 148.5C349 147.395 348.105 146.5 347 146.5H327C325.895 146.5 325 147.395 325 148.5V205C325 206.105 325.895 207 327 207H347C348.105 207 349 206.105 349 205V148.5Z" stroke="white"/>
<path d="M255 86.5C253.895 86.5 253 85.6046 253 84.5V47C253 45.8954 253.895 45 255 45H275C276.105 45 277 45.8954 277 47V84.5C277 85.6046 276.105 86.5 275 86.5H255Z" stroke="white"/>
<path d="M277 95.5C277 94.3954 276.105 93.5 275 93.5H255C253.895 93.5 253 94.3954 253 95.5V138.5C253 139.605 253.895 140.5 255 140.5H275C276.105 140.5 277 139.605 277 138.5V95.5Z" stroke="white"/>
<path d="M277 148.5C277 147.395 276.105 146.5 275 146.5H255C253.895 146.5 253 147.395 253 148.5V205C253 206.105 253.895 207 255 207H275C276.105 207 277 206.105 277 205V148.5Z" stroke="white"/>
<path d="M563.883 274.279C384.088 238.739 341.784 236.153 302.818 263.912C302.479 264.154 302 263.917 302 263.5V250.776C302 250.594 301.958 250.416 301.877 250.253L301.758 250.016C301.604 249.708 301.664 249.336 301.908 249.092C301.969 249.031 302.041 248.979 302.118 248.941C362.048 219.016 398.615 231.521 574 264L574.582 264.194C575.162 264.387 575.622 264.835 575.83 265.409L599.732 331.262C599.901 331.726 599.838 332.243 599.565 332.653C599.222 333.168 598.586 333.426 597.978 333.317C396.757 297.224 329.931 284.745 302.597 321.188C302.409 321.438 302 321.313 302 321V320V307.276C302 307.094 301.958 306.916 301.877 306.753L301.816 306.632C301.627 306.255 301.701 305.799 302 305.5C339.944 268.056 438.209 292.926 579.372 317.889C579.762 317.958 580.167 317.833 580.447 317.553C580.784 317.216 580.892 316.714 580.724 316.268L565.392 275.542C565.148 274.894 564.562 274.413 563.883 274.279Z" fill="white" stroke="white"/>
<path d="M37.1167 274.323C217.355 238.695 259.423 236.184 298.47 264.162C298.812 264.407 299.227 264.544 299.648 264.544H300C301.105 264.544 302 263.648 302 262.544V251.044C302 249.939 301.105 249.044 300 249.044H299.472C299.162 249.044 298.848 248.968 298.57 248.829C238.825 219.103 202.081 231.621 27 264.044L26.4176 264.238C25.838 264.431 25.3784 264.878 25.17 265.453L1.26785 331.306C1.09943 331.77 1.16165 332.286 1.43549 332.697C1.77829 333.211 2.4136 333.469 3.02191 333.36C204.219 297.272 271.054 284.792 298.393 321.219C298.776 321.729 299.378 322.044 300.016 322.044C301.112 322.044 302 321.155 302 320.06V307.544C302 306.439 301.105 305.544 300 305.544H299.821C299.295 305.544 298.792 305.336 298.412 304.973C260.048 268.354 162.068 293.098 21.6278 317.933C21.2378 318.002 20.8332 317.877 20.5532 317.597C20.2164 317.26 20.1078 316.757 20.2756 316.311L35.6079 275.585C35.8517 274.938 36.438 274.457 37.1167 274.323Z" fill="white" stroke="white"/>
<path d="M593.149 352.321L598.967 364.853C599.274 365.513 599.053 366.298 598.448 366.702C598.159 366.894 597.822 366.98 597.477 366.941C503.891 356.37 344.585 307.106 302.646 355.24C302.424 355.494 302 355.338 302 355V339C302 338.37 302.3 337.773 302.808 337.401C348.719 303.752 414.878 321.629 591.355 350.893C591.767 350.961 592.159 351.159 592.454 351.454L592.749 351.749C592.915 351.915 593.051 352.109 593.149 352.321Z" fill="white" stroke="white"/>
<path d="M9.35077 352.164L3.53265 364.695C3.22617 365.355 3.44684 366.14 4.05243 366.544C4.34149 366.737 4.67816 366.822 5.02338 366.783C98.8626 356.184 258.779 306.681 300.193 355.476C300.389 355.707 300.676 355.842 300.98 355.842C301.543 355.842 302 355.385 302 354.822V339.154C302 338.498 301.505 337.948 300.852 337.879C300.622 337.855 300.4 337.767 300.214 337.629C254.282 303.458 188.292 321.36 11.1453 350.735C10.7334 350.804 10.3413 351.001 10.0461 351.296L9.75058 351.592C9.58481 351.757 9.44949 351.951 9.35077 352.164Z" fill="white" stroke="white"/>
</svg>
