<svg width="601" height="368" viewBox="0 0 601 368" fill="none" xmlns="http://www.w3.org/2000/svg">
<path fill-rule="evenodd" clip-rule="evenodd" d="M135 71.7414V230.208C135 231.578 136.302 232.574 137.614 232.181C151.834 227.923 222.062 209.394 298.71 232.911C298.901 232.969 299.101 233 299.301 233H300.662C300.886 233 301.109 232.962 301.321 232.889C370.982 208.762 449.414 228.142 464.439 232.27C465.735 232.625 467 231.642 467 230.299V73.1993C467 72.2194 466.29 71.3838 465.323 71.2256L413.677 62.7744C412.71 62.6162 412 61.7806 412 60.8007V36.2715C412 35.2603 411.245 34.4082 410.241 34.2861L376.758 30.2139C375.755 30.0918 375 29.2397 375 28.2285V3C375 1.89543 374.104 1 373 1H229.5C228.395 1 227.5 1.89543 227.5 3V28.2202C227.5 29.2349 226.74 30.0888 225.732 30.2066L190.768 34.2934C189.76 34.4112 189 35.2651 189 36.2799V60.7586C189 61.7568 188.264 62.6022 187.275 62.7396L136.725 69.7604C135.736 69.8978 135 70.7432 135 71.7414ZM191.718 149.5C191.718 150.605 192.605 151.5 193.699 151.5H212.019C213.113 151.5 214 150.605 214 149.5V114C214 112.895 213.113 112 212.019 112H193.699C192.605 112 191.718 112.895 191.718 114V149.5ZM191.718 194C191.718 195.105 192.605 196 193.699 196H212.019C213.113 196 214 195.105 214 194V160C214 158.895 213.113 158 212.019 158H193.699C192.605 158 191.718 158.895 191.718 160V194ZM164.981 151.5C163.887 151.5 163 150.605 163 149.5V114C163 112.895 163.887 112 164.981 112H183.301C184.395 112 185.282 112.895 185.282 114V149.5C185.282 150.605 184.395 151.5 183.301 151.5H164.981ZM164.981 196C163.887 196 163 195.105 163 194V160C163 158.895 163.887 158 164.981 158H183.301C184.395 158 185.282 158.895 185.282 160V194C185.282 195.105 184.395 196 183.301 196H164.981ZM416.718 149.5C416.718 150.605 417.605 151.5 418.699 151.5H437.019C438.113 151.5 439 150.605 439 149.5V114C439 112.895 438.113 112 437.019 112H418.699C417.605 112 416.718 112.895 416.718 114V149.5ZM416.718 194C416.718 195.105 417.605 196 418.699 196H437.019C438.113 196 439 195.105 439 194V160C439 158.895 438.113 158 437.019 158H418.699C417.605 158 416.718 158.895 416.718 160V194ZM389.981 151.5C388.887 151.5 388 150.605 388 149.5V114C388 112.895 388.887 112 389.981 112H408.301C409.395 112 410.282 112.895 410.282 114V149.5C410.282 150.605 409.395 151.5 408.301 151.5H389.981ZM389.981 196C388.887 196 388 195.105 388 194V160C388 158.895 388.887 158 389.981 158H408.301C409.395 158 410.282 158.895 410.282 160V194C410.282 195.105 409.395 196 408.301 196H389.981ZM253 84.5C253 85.6046 253.895 86.5 255 86.5H275C276.105 86.5 277 85.6046 277 84.5V47C277 45.8954 276.105 45 275 45H255C253.895 45 253 45.8954 253 47V84.5ZM291 86.5C289.895 86.5 289 85.6046 289 84.5V47C289 45.8954 289.895 45 291 45H311C312.105 45 313 45.8954 313 47V84.5C313 85.6046 312.105 86.5 311 86.5H291ZM327 86.5C325.895 86.5 325 85.6046 325 84.5V47C325 45.8954 325.895 45 327 45H347C348.105 45 349 45.8954 349 47V84.5C349 85.6046 348.105 86.5 347 86.5H327ZM311 93.5C312.105 93.5 313 94.3954 313 95.5V138.5C313 139.605 312.105 140.5 311 140.5H291C289.895 140.5 289 139.605 289 138.5V95.5C289 94.3954 289.895 93.5 291 93.5H311ZM313 148.5C313 147.395 312.105 146.5 311 146.5H291C289.895 146.5 289 147.395 289 148.5V205C289 206.105 289.895 207 291 207H311C312.105 207 313 206.105 313 205V148.5ZM347 93.5C348.105 93.5 349 94.3954 349 95.5V138.5C349 139.605 348.105 140.5 347 140.5H327C325.895 140.5 325 139.605 325 138.5V95.5C325 94.3954 325.895 93.5 327 93.5H347ZM349 148.5C349 147.395 348.105 146.5 347 146.5H327C325.895 146.5 325 147.395 325 148.5V205C325 206.105 325.895 207 327 207H347C348.105 207 349 206.105 349 205V148.5ZM277 95.5C277 94.3954 276.105 93.5 275 93.5H255C253.895 93.5 253 94.3954 253 95.5V138.5C253 139.605 253.895 140.5 255 140.5H275C276.105 140.5 277 139.605 277 138.5V95.5ZM275 146.5C276.105 146.5 277 147.395 277 148.5V205C277 206.105 276.105 207 275 207H255C253.895 207 253 206.105 253 205V148.5C253 147.395 253.895 146.5 255 146.5H275Z" fill="white"/>
<path d="M137.614 232.181L137.471 231.702L137.471 231.702L137.614 232.181ZM298.71 232.911L298.857 232.433L298.857 232.433L298.71 232.911ZM301.321 232.889L301.484 233.361L301.484 233.361L301.321 232.889ZM464.439 232.27L464.306 232.752L464.306 232.752L464.439 232.27ZM465.323 71.2256L465.242 71.719L465.242 71.719L465.323 71.2256ZM413.677 62.7744L413.596 63.2679L413.596 63.2679L413.677 62.7744ZM410.241 34.2861L410.181 34.7825L410.241 34.2861ZM376.758 30.2139L376.698 30.7102L376.698 30.7102L376.758 30.2139ZM225.732 30.2066L225.674 29.71L225.674 29.71L225.732 30.2066ZM190.768 34.2934L190.71 33.7968L190.71 33.7968L190.768 34.2934ZM187.275 62.7396L187.206 62.2443L187.206 62.2443L187.275 62.7396ZM136.725 69.7604L136.656 69.2652L136.656 69.2652L136.725 69.7604ZM135.5 230.208V71.7414H134.5V230.208H135.5ZM137.471 231.702C136.488 231.996 135.5 231.253 135.5 230.208H134.5C134.5 231.903 136.115 233.152 137.757 232.66L137.471 231.702ZM298.857 232.433C222.068 208.873 151.725 227.434 137.471 231.702L137.757 232.66C151.943 228.412 222.056 209.915 298.563 233.389L298.857 232.433ZM299.301 232.5C299.152 232.5 299.001 232.477 298.857 232.433L298.563 233.389C298.801 233.462 299.051 233.5 299.301 233.5V232.5ZM300.662 232.5H299.301V233.5H300.662V232.5ZM301.157 232.416C300.997 232.471 300.829 232.5 300.662 232.5V233.5C300.942 233.5 301.22 233.452 301.484 233.361L301.157 232.416ZM464.571 231.787C449.536 227.657 370.974 208.236 301.157 232.416L301.484 233.361C370.991 209.289 449.292 228.627 464.306 232.752L464.571 231.787ZM466.5 230.299C466.5 231.319 465.542 232.054 464.571 231.787L464.306 232.752C465.927 233.197 467.5 231.966 467.5 230.299H466.5ZM466.5 73.1993V230.299H467.5V73.1993H466.5ZM465.242 71.719C465.967 71.8377 466.5 72.4644 466.5 73.1993H467.5C467.5 71.9744 466.612 70.9299 465.404 70.7321L465.242 71.719ZM413.596 63.2679L465.242 71.719L465.404 70.7321L413.758 62.281L413.596 63.2679ZM411.5 60.8007C411.5 62.0256 412.387 63.0701 413.596 63.2679L413.758 62.281C413.032 62.1623 412.5 61.5356 412.5 60.8007H411.5ZM411.5 36.2715V60.8007H412.5V36.2715H411.5ZM410.181 34.7825C410.934 34.874 411.5 35.5131 411.5 36.2715H412.5C412.5 35.0075 411.556 33.9424 410.302 33.7898L410.181 34.7825ZM376.698 30.7102L410.181 34.7825L410.302 33.7898L376.819 29.7175L376.698 30.7102ZM374.5 28.2285C374.5 29.4925 375.443 30.5576 376.698 30.7102L376.819 29.7175C376.066 29.626 375.5 28.9869 375.5 28.2285H374.5ZM374.5 3V28.2285H375.5V3H374.5ZM373 1.5C373.828 1.5 374.5 2.17157 374.5 3H375.5C375.5 1.61929 374.381 0.5 373 0.5V1.5ZM229.5 1.5H373V0.5H229.5V1.5ZM228 3C228 2.17157 228.672 1.5 229.5 1.5V0.5C228.119 0.5 227 1.61929 227 3H228ZM228 28.2202V3H227V28.2202H228ZM225.79 30.7032C227.05 30.556 228 29.4886 228 28.2202H227C227 28.9812 226.43 29.6217 225.674 29.71L225.79 30.7032ZM190.826 34.79L225.79 30.7032L225.674 29.71L190.71 33.7968L190.826 34.79ZM189.5 36.2799C189.5 35.5188 190.07 34.8783 190.826 34.79L190.71 33.7968C189.45 33.944 188.5 35.0114 188.5 36.2799H189.5ZM189.5 60.7586V36.2799H188.5V60.7586H189.5ZM187.344 63.2348C188.58 63.0631 189.5 62.0064 189.5 60.7586H188.5C188.5 61.5073 187.948 62.1413 187.206 62.2443L187.344 63.2348ZM136.794 70.2557L187.344 63.2348L187.206 62.2443L136.656 69.2652L136.794 70.2557ZM135.5 71.7414C135.5 70.9927 136.052 70.3587 136.794 70.2557L136.656 69.2652C135.42 69.4369 134.5 70.4936 134.5 71.7414H135.5ZM193.699 151C192.886 151 192.218 150.333 192.218 149.5H191.218C191.218 150.876 192.324 152 193.699 152V151ZM212.019 151H193.699V152H212.019V151ZM213.5 149.5C213.5 150.333 212.833 151 212.019 151V152C213.394 152 214.5 150.876 214.5 149.5H213.5ZM213.5 114V149.5H214.5V114H213.5ZM212.019 112.5C212.833 112.5 213.5 113.167 213.5 114H214.5C214.5 112.624 213.394 111.5 212.019 111.5V112.5ZM193.699 112.5H212.019V111.5H193.699V112.5ZM192.218 114C192.218 113.167 192.886 112.5 193.699 112.5V111.5C192.324 111.5 191.218 112.624 191.218 114H192.218ZM192.218 149.5V114H191.218V149.5H192.218ZM193.699 195.5C192.886 195.5 192.218 194.833 192.218 194H191.218C191.218 195.376 192.324 196.5 193.699 196.5V195.5ZM212.019 195.5H193.699V196.5H212.019V195.5ZM213.5 194C213.5 194.833 212.833 195.5 212.019 195.5V196.5C213.394 196.5 214.5 195.376 214.5 194H213.5ZM213.5 160V194H214.5V160H213.5ZM212.019 158.5C212.833 158.5 213.5 159.167 213.5 160H214.5C214.5 158.624 213.394 157.5 212.019 157.5V158.5ZM193.699 158.5H212.019V157.5H193.699V158.5ZM192.218 160C192.218 159.167 192.886 158.5 193.699 158.5V157.5C192.324 157.5 191.218 158.624 191.218 160H192.218ZM192.218 194V160H191.218V194H192.218ZM162.5 149.5C162.5 150.876 163.606 152 164.981 152V151C164.167 151 163.5 150.333 163.5 149.5H162.5ZM162.5 114V149.5H163.5V114H162.5ZM164.981 111.5C163.606 111.5 162.5 112.624 162.5 114H163.5C163.5 113.167 164.167 112.5 164.981 112.5V111.5ZM183.301 111.5H164.981V112.5H183.301V111.5ZM185.782 114C185.782 112.624 184.676 111.5 183.301 111.5V112.5C184.114 112.5 184.782 113.167 184.782 114H185.782ZM185.782 149.5V114H184.782V149.5H185.782ZM183.301 152C184.676 152 185.782 150.876 185.782 149.5H184.782C184.782 150.333 184.114 151 183.301 151V152ZM164.981 152H183.301V151H164.981V152ZM162.5 194C162.5 195.376 163.606 196.5 164.981 196.5V195.5C164.167 195.5 163.5 194.833 163.5 194H162.5ZM162.5 160V194H163.5V160H162.5ZM164.981 157.5C163.606 157.5 162.5 158.624 162.5 160H163.5C163.5 159.167 164.167 158.5 164.981 158.5V157.5ZM183.301 157.5H164.981V158.5H183.301V157.5ZM185.782 160C185.782 158.624 184.676 157.5 183.301 157.5V158.5C184.114 158.5 184.782 159.167 184.782 160H185.782ZM185.782 194V160H184.782V194H185.782ZM183.301 196.5C184.676 196.5 185.782 195.376 185.782 194H184.782C184.782 194.833 184.114 195.5 183.301 195.5V196.5ZM164.981 196.5H183.301V195.5H164.981V196.5ZM418.699 151C417.886 151 417.218 150.333 417.218 149.5H416.218C416.218 150.876 417.324 152 418.699 152V151ZM437.019 151H418.699V152H437.019V151ZM438.5 149.5C438.5 150.333 437.833 151 437.019 151V152C438.394 152 439.5 150.876 439.5 149.5H438.5ZM438.5 114V149.5H439.5V114H438.5ZM437.019 112.5C437.833 112.5 438.5 113.167 438.5 114H439.5C439.5 112.624 438.394 111.5 437.019 111.5V112.5ZM418.699 112.5H437.019V111.5H418.699V112.5ZM417.218 114C417.218 113.167 417.886 112.5 418.699 112.5V111.5C417.324 111.5 416.218 112.624 416.218 114H417.218ZM417.218 149.5V114H416.218V149.5H417.218ZM418.699 195.5C417.886 195.5 417.218 194.833 417.218 194H416.218C416.218 195.376 417.324 196.5 418.699 196.5V195.5ZM437.019 195.5H418.699V196.5H437.019V195.5ZM438.5 194C438.5 194.833 437.833 195.5 437.019 195.5V196.5C438.394 196.5 439.5 195.376 439.5 194H438.5ZM438.5 160V194H439.5V160H438.5ZM437.019 158.5C437.833 158.5 438.5 159.167 438.5 160H439.5C439.5 158.624 438.394 157.5 437.019 157.5V158.5ZM418.699 158.5H437.019V157.5H418.699V158.5ZM417.218 160C417.218 159.167 417.886 158.5 418.699 158.5V157.5C417.324 157.5 416.218 158.624 416.218 160H417.218ZM417.218 194V160H416.218V194H417.218ZM387.5 149.5C387.5 150.876 388.606 152 389.981 152V151C389.167 151 388.5 150.333 388.5 149.5H387.5ZM387.5 114V149.5H388.5V114H387.5ZM389.981 111.5C388.606 111.5 387.5 112.624 387.5 114H388.5C388.5 113.167 389.167 112.5 389.981 112.5V111.5ZM408.301 111.5H389.981V112.5H408.301V111.5ZM410.782 114C410.782 112.624 409.676 111.5 408.301 111.5V112.5C409.114 112.5 409.782 113.167 409.782 114H410.782ZM410.782 149.5V114H409.782V149.5H410.782ZM408.301 152C409.676 152 410.782 150.876 410.782 149.5H409.782C409.782 150.333 409.114 151 408.301 151V152ZM389.981 152H408.301V151H389.981V152ZM387.5 194C387.5 195.376 388.606 196.5 389.981 196.5V195.5C389.167 195.5 388.5 194.833 388.5 194H387.5ZM387.5 160V194H388.5V160H387.5ZM389.981 157.5C388.606 157.5 387.5 158.624 387.5 160H388.5C388.5 159.167 389.167 158.5 389.981 158.5V157.5ZM408.301 157.5H389.981V158.5H408.301V157.5ZM410.782 160C410.782 158.624 409.676 157.5 408.301 157.5V158.5C409.114 158.5 409.782 159.167 409.782 160H410.782ZM410.782 194V160H409.782V194H410.782ZM408.301 196.5C409.676 196.5 410.782 195.376 410.782 194H409.782C409.782 194.833 409.114 195.5 408.301 195.5V196.5ZM389.981 196.5H408.301V195.5H389.981V196.5ZM255 86C254.172 86 253.5 85.3284 253.5 84.5H252.5C252.5 85.8807 253.619 87 255 87V86ZM275 86H255V87H275V86ZM276.5 84.5C276.5 85.3284 275.828 86 275 86V87C276.381 87 277.5 85.8807 277.5 84.5H276.5ZM276.5 47V84.5H277.5V47H276.5ZM275 45.5C275.828 45.5 276.5 46.1716 276.5 47H277.5C277.5 45.6193 276.381 44.5 275 44.5V45.5ZM255 45.5H275V44.5H255V45.5ZM253.5 47C253.5 46.1716 254.172 45.5 255 45.5V44.5C253.619 44.5 252.5 45.6193 252.5 47H253.5ZM253.5 84.5V47H252.5V84.5H253.5ZM288.5 84.5C288.5 85.8807 289.619 87 291 87V86C290.172 86 289.5 85.3284 289.5 84.5H288.5ZM288.5 47V84.5H289.5V47H288.5ZM291 44.5C289.619 44.5 288.5 45.6193 288.5 47H289.5C289.5 46.1716 290.172 45.5 291 45.5V44.5ZM311 44.5H291V45.5H311V44.5ZM313.5 47C313.5 45.6193 312.381 44.5 311 44.5V45.5C311.828 45.5 312.5 46.1716 312.5 47H313.5ZM313.5 84.5V47H312.5V84.5H313.5ZM311 87C312.381 87 313.5 85.8807 313.5 84.5H312.5C312.5 85.3284 311.828 86 311 86V87ZM291 87H311V86H291V87ZM324.5 84.5C324.5 85.8807 325.619 87 327 87V86C326.172 86 325.5 85.3284 325.5 84.5H324.5ZM324.5 47V84.5H325.5V47H324.5ZM327 44.5C325.619 44.5 324.5 45.6193 324.5 47H325.5C325.5 46.1716 326.172 45.5 327 45.5V44.5ZM347 44.5H327V45.5H347V44.5ZM349.5 47C349.5 45.6193 348.381 44.5 347 44.5V45.5C347.828 45.5 348.5 46.1716 348.5 47H349.5ZM349.5 84.5V47H348.5V84.5H349.5ZM347 87C348.381 87 349.5 85.8807 349.5 84.5H348.5C348.5 85.3284 347.828 86 347 86V87ZM327 87H347V86H327V87ZM313.5 95.5C313.5 94.1193 312.381 93 311 93V94C311.828 94 312.5 94.6716 312.5 95.5H313.5ZM313.5 138.5V95.5H312.5V138.5H313.5ZM311 141C312.381 141 313.5 139.881 313.5 138.5H312.5C312.5 139.328 311.828 140 311 140V141ZM291 141H311V140H291V141ZM288.5 138.5C288.5 139.881 289.619 141 291 141V140C290.172 140 289.5 139.328 289.5 138.5H288.5ZM288.5 95.5V138.5H289.5V95.5H288.5ZM291 93C289.619 93 288.5 94.1193 288.5 95.5H289.5C289.5 94.6716 290.172 94 291 94V93ZM311 93H291V94H311V93ZM311 147C311.828 147 312.5 147.672 312.5 148.5H313.5C313.5 147.119 312.381 146 311 146V147ZM291 147H311V146H291V147ZM289.5 148.5C289.5 147.672 290.172 147 291 147V146C289.619 146 288.5 147.119 288.5 148.5H289.5ZM289.5 205V148.5H288.5V205H289.5ZM291 206.5C290.172 206.5 289.5 205.828 289.5 205H288.5C288.5 206.381 289.619 207.5 291 207.5V206.5ZM311 206.5H291V207.5H311V206.5ZM312.5 205C312.5 205.828 311.828 206.5 311 206.5V207.5C312.381 207.5 313.5 206.381 313.5 205H312.5ZM312.5 148.5V205H313.5V148.5H312.5ZM349.5 95.5C349.5 94.1193 348.381 93 347 93V94C347.828 94 348.5 94.6716 348.5 95.5H349.5ZM349.5 138.5V95.5H348.5V138.5H349.5ZM347 141C348.381 141 349.5 139.881 349.5 138.5H348.5C348.5 139.328 347.828 140 347 140V141ZM327 141H347V140H327V141ZM324.5 138.5C324.5 139.881 325.619 141 327 141V140C326.172 140 325.5 139.328 325.5 138.5H324.5ZM324.5 95.5V138.5H325.5V95.5H324.5ZM327 93C325.619 93 324.5 94.1193 324.5 95.5H325.5C325.5 94.6716 326.172 94 327 94V93ZM347 93H327V94H347V93ZM347 147C347.828 147 348.5 147.672 348.5 148.5H349.5C349.5 147.119 348.381 146 347 146V147ZM327 147H347V146H327V147ZM325.5 148.5C325.5 147.672 326.172 147 327 147V146C325.619 146 324.5 147.119 324.5 148.5H325.5ZM325.5 205V148.5H324.5V205H325.5ZM327 206.5C326.172 206.5 325.5 205.828 325.5 205H324.5C324.5 206.381 325.619 207.5 327 207.5V206.5ZM347 206.5H327V207.5H347V206.5ZM348.5 205C348.5 205.828 347.828 206.5 347 206.5V207.5C348.381 207.5 349.5 206.381 349.5 205H348.5ZM348.5 148.5V205H349.5V148.5H348.5ZM275 94C275.828 94 276.5 94.6716 276.5 95.5H277.5C277.5 94.1193 276.381 93 275 93V94ZM255 94H275V93H255V94ZM253.5 95.5C253.5 94.6716 254.172 94 255 94V93C253.619 93 252.5 94.1193 252.5 95.5H253.5ZM253.5 138.5V95.5H252.5V138.5H253.5ZM255 140C254.172 140 253.5 139.328 253.5 138.5H252.5C252.5 139.881 253.619 141 255 141V140ZM275 140H255V141H275V140ZM276.5 138.5C276.5 139.328 275.828 140 275 140V141C276.381 141 277.5 139.881 277.5 138.5H276.5ZM276.5 95.5V138.5H277.5V95.5H276.5ZM277.5 148.5C277.5 147.119 276.381 146 275 146V147C275.828 147 276.5 147.672 276.5 148.5H277.5ZM277.5 205V148.5H276.5V205H277.5ZM275 207.5C276.381 207.5 277.5 206.381 277.5 205H276.5C276.5 205.828 275.828 206.5 275 206.5V207.5ZM255 207.5H275V206.5H255V207.5ZM252.5 205C252.5 206.381 253.619 207.5 255 207.5V206.5C254.172 206.5 253.5 205.828 253.5 205H252.5ZM252.5 148.5V205H253.5V148.5H252.5ZM255 146C253.619 146 252.5 147.119 252.5 148.5H253.5C253.5 147.672 254.172 147 255 147V146ZM275 146H255V147H275V146Z" fill="white"/>
<path d="M563.883 274.279C384.088 238.739 341.784 236.153 302.818 263.912C302.479 264.154 302 263.917 302 263.5V250.776C302 250.594 301.958 250.416 301.877 250.253L301.758 250.016C301.604 249.708 301.664 249.336 301.908 249.092C301.969 249.031 302.041 248.979 302.118 248.941C362.048 219.016 398.615 231.521 574 264L574.582 264.194C575.162 264.387 575.622 264.835 575.83 265.409L599.732 331.262C599.901 331.726 599.838 332.243 599.565 332.653C599.222 333.168 598.586 333.426 597.978 333.317C396.757 297.224 329.931 284.745 302.597 321.188C302.409 321.438 302 321.313 302 321V320V307.276C302 307.094 301.958 306.916 301.877 306.753L301.816 306.632C301.627 306.255 301.701 305.799 302 305.5C339.944 268.056 438.209 292.926 579.372 317.889C579.762 317.958 580.167 317.833 580.447 317.553C580.784 317.216 580.892 316.714 580.724 316.268L565.392 275.542C565.148 274.894 564.562 274.413 563.883 274.279Z" fill="white" stroke="white"/>
<path d="M37.1167 274.323C217.355 238.695 259.423 236.184 298.47 264.162C298.812 264.407 299.227 264.544 299.648 264.544H300C301.105 264.544 302 263.648 302 262.544V251.044C302 249.939 301.105 249.044 300 249.044H299.472C299.162 249.044 298.848 248.968 298.57 248.829C238.825 219.103 202.081 231.621 27 264.044L26.4176 264.238C25.838 264.431 25.3784 264.878 25.17 265.453L1.26785 331.306C1.09943 331.77 1.16165 332.286 1.43549 332.697C1.77829 333.211 2.4136 333.469 3.02191 333.36C204.219 297.272 271.054 284.792 298.393 321.219C298.776 321.729 299.378 322.044 300.016 322.044C301.112 322.044 302 321.155 302 320.06V307.544C302 306.439 301.105 305.544 300 305.544H299.821C299.295 305.544 298.792 305.336 298.412 304.973C260.048 268.354 162.068 293.098 21.6278 317.933C21.2378 318.002 20.8332 317.877 20.5532 317.597C20.2164 317.26 20.1078 316.757 20.2756 316.311L35.6079 275.585C35.8517 274.938 36.438 274.457 37.1167 274.323Z" fill="white" stroke="white"/>
<path d="M593.149 352.321L598.967 364.853C599.274 365.513 599.053 366.298 598.448 366.702C598.159 366.894 597.822 366.98 597.477 366.941C503.891 356.37 344.585 307.106 302.646 355.24C302.424 355.494 302 355.338 302 355V339C302 338.37 302.3 337.773 302.808 337.401C348.719 303.752 414.878 321.629 591.355 350.893C591.767 350.961 592.159 351.159 592.454 351.454L592.749 351.749C592.915 351.915 593.051 352.109 593.149 352.321Z" fill="white" stroke="white"/>
<path d="M9.35077 352.164L3.53265 364.695C3.22617 365.355 3.44684 366.14 4.05243 366.544C4.34149 366.737 4.67816 366.822 5.02338 366.783C98.8626 356.184 258.779 306.681 300.193 355.476C300.389 355.707 300.676 355.842 300.98 355.842C301.543 355.842 302 355.385 302 354.822V339.154C302 338.498 301.505 337.948 300.852 337.879C300.622 337.855 300.4 337.767 300.214 337.629C254.282 303.458 188.292 321.36 11.1453 350.735C10.7334 350.804 10.3413 351.001 10.0461 351.296L9.75058 351.592C9.58481 351.757 9.44949 351.951 9.35077 352.164Z" fill="white" stroke="white"/>
</svg>
